<svg xmlns="http://www.w3.org/2000/svg" version="1.1" xmlns:xlink="http://www.w3.org/1999/xlink" xmlns:svgjs="http://svgjs.dev/svgjs" viewBox="0 0 800 400"><path d="M205.19480895996094,259.7402648925781C221.40259826660156,232.31169189453126,254.649345703125,137.97402648925782,272.7272644042969,145.4545440673828C290.80518310546876,152.9350616455078,261.1947900390625,285.2986999511719,280.51947021484375,290.9090881347656C299.844150390625,296.51947631835935,338.9091015625,165.71427429199218,353.24676513671875,168.83116149902344C367.5844287109375,171.9480487060547,327.1688293457031,303.2727392578125,340.2597351074219,303.8961181640625C353.35064086914065,304.5194970703125,390.9610339355469,172.67533142089843,407.7922058105469,171.42857360839844C424.62337768554687,170.18181579589844,390.4415661621094,301.19480224609373,410.3896179199219,298.7012939453125C430.33766967773437,296.20778564453127,474.7012951660156,161.66233459472656,490.9090881347656,161.03895568847656C507.11688110351565,160.41557678222657,461.7143029785156,296.1038818359375,477.9220886230469,296.1038818359375C494.12987426757815,296.1038818359375,541.6103637695312,164.15583557128906,558.4415283203125,161.03895568847656C575.2726928710938,157.92207580566406,550.5454418945312,253.81817993164063,548.0519409179688,283.11688232421875" fill="none" stroke-width="59" stroke="url(&quot;#SvgjsLinearGradient1003&quot;)" stroke-linecap="round" stroke-dasharray="0 0"></path><defs><linearGradient id="SvgjsLinearGradient1003"><stop stop-color="hsl(37, 99%, 67%)" offset="0"></stop><stop stop-color="hsl(316, 73%, 52%)" offset="1"></stop></linearGradient></defs></svg>
