<!-- <svg xmlns="http://www.w3.org/2000/svg" height="200" width="200">
  <g style="order: -1;">
    <polygon
      transform="rotate(45 100 100)"
      stroke-width="1"
      stroke="#d3a410"
      fill="none"
      points="70,70 148,50 130,130 50,150"
      id="bounce"
    ></polygon>
    <polygon
      transform="rotate(45 100 100)"
      stroke-width="1"
      stroke="#d3a410"
      fill="none"
      points="70,70 148,50 130,130 50,150"
      id="bounce2"
    ></polygon>
    <polygon
      transform="rotate(45 100 100)"
      stroke-width="2"
      stroke=""
      fill="#414750"
      points="70,70 150,50 130,130 50,150"
    ></polygon>
    <polygon
      stroke-width="2"
      stroke=""
      fill="url(#gradiente)"
      points="100,70 150,100 100,130 50,100"
    ></polygon>
    <defs>
      <linearGradient y2="100%" x2="10%" y1="0%" x1="0%" id="gradiente">
        <stop style="stop-color: #1e2026;stop-opacity:1" offset="20%"></stop>
        <stop style="stop-color:#414750;stop-opacity:1" offset="60%"></stop>
      </linearGradient>
    </defs>
    <polygon
      transform="translate(20, 31)"
      stroke-width="2"
      stroke=""
      fill="#b7870f"
      points="80,50 80,75 80,99 40,75"
    ></polygon>
    <polygon
      transform="translate(20, 31)"
      stroke-width="2"
      stroke=""
      fill="url(#gradiente2)"
      points="40,-40 80,-40 80,99 40,75"
    ></polygon>
    <defs>
      <linearGradient y2="100%" x2="0%" y1="-17%" x1="10%" id="gradiente2">
        <stop style="stop-color: #d3a51000;stop-opacity:1" offset="20%"></stop>
        <stop
          style="stop-color:#d3a51054;stop-opacity:1"
          offset="100%"
          id="animatedStop"
        ></stop>
      </linearGradient>
    </defs>
    <polygon
      transform="rotate(180 100 100) translate(20, 20)"
      stroke-width="2"
      stroke=""
      fill="#d3a410"
      points="80,50 80,75 80,99 40,75"
    ></polygon>
    <polygon
      transform="rotate(0 100 100) translate(60, 20)"
      stroke-width="2"
      stroke=""
      fill="url(#gradiente3)"
      points="40,-40 80,-40 80,85 40,110.2"
    ></polygon>
    <defs>
      <linearGradient y2="100%" x2="10%" y1="0%" x1="0%" id="gradiente3">
        <stop style="stop-color: #d3a51000;stop-opacity:1" offset="20%"></stop>
        <stop
          style="stop-color:#d3a51054;stop-opacity:1"
          offset="100%"
          id="animatedStop"
        ></stop>
      </linearGradient>
    </defs>
    <polygon
      transform="rotate(45 100 100) translate(80, 95)"
      stroke-width="2"
      stroke=""
      fill="#ffe4a1"
      points="5,0 5,5 0,5 0,0"
      id="particles"
    ></polygon>
    <polygon
      transform="rotate(45 100 100) translate(80, 55)"
      stroke-width="2"
      stroke=""
      fill="#ccb069"
      points="6,0 6,6 0,6 0,0"
      id="particles"
    ></polygon>
    <polygon
      transform="rotate(45 100 100) translate(70, 80)"
      stroke-width="2"
      stroke=""
      fill="#fff"
      points="2,0 2,2 0,2 0,0"
      id="particles"
    ></polygon>
    <polygon
      stroke-width="2"
      stroke=""
      fill="#292d34"
      points="29.5,99.8 100,142 100,172 29.5,130"
    ></polygon>
    <polygon
      transform="translate(50, 92)"
      stroke-width="2"
      stroke=""
      fill="#1f2127"
      points="50,50 120.5,8 120.5,35 50,80"
    ></polygon>
  </g>
</svg> -->
<svg version="1.1" viewBox="0 0 640 400" xmlns="http://www.w3.org/2000/svg" xmlns:xlink="http://www.w3.org/1999/xlink" xmlns:svgjs="http://svgjs.dev/svgjs" matcher="0.9200864545356644"><g viewBox="0 0 640 200" matcher="0.9200864545356644"><g matcher="0.9200864545356644"><g matcher="0.9200864545356644"><g matcher="0.9200864545356644"><svg viewBox="120 100 440 200" data-background-color="#000" preserveAspectRatio="xMidYMid meet" height="200" width="440" xmlns="http://www.w3.org/2000/svg" xmlns:xlink="http://www.w3.org/1999/xlink"><rect width="640" height="400" x="0" y="0" opacity="1" fill="#0a0a0a" data-fill-palette-color="background" id="background"></rect><g id="tight-bounds" transform="matrix(1,0,0,1,161.1197199623164,171.1187)"><svg viewBox="0 0 317.7605600753672 57.7626" height="57.7626" width="317.7605600753672"><g><svg viewBox="0 0 317.7605600753672 57.7626" height="57.7626" width="317.7605600753672"><g><svg viewBox="0 0 317.7605600753672 57.7626" height="57.7626" width="317.7605600753672"><g id="textblocktransform"><svg viewBox="0 0 317.7605600753672 57.7626" height="57.7626" width="317.7605600753672" id="textblock"><g><svg viewBox="0 0 317.7605600753672 57.7626" height="57.7626" width="317.7605600753672"><g><svg><g></g><g></g></svg></g><g><svg><g><svg></svg></g><g></g></svg></g><g id="text-0"><svg viewBox="0 0 317.7605600753672 57.7626" height="57.7626" width="317.7605600753672"><g transform="matrix(1,0,0,1,0,0)"><svg width="244.96519999999998" viewBox="4.349999904632568 -35.099998474121094 151.38999938964844 35.69999694824219" height="57.7626" data-palette-color="#ffffff"><g class="wordmark-text-0" data-fill-palette-color="primary"><path d="M4.35-34.5L8.75-34.5 8.75 0 4.35 0 4.35-34.5ZM27.05-35.1L27.05-35.1Q29.5-35.05 32.1-34.85 34.7-34.65 37.3-34.1L37.3-34.1 37-30.9Q34.85-31 32.25-31.08 29.65-31.15 27.25-31.15L27.25-31.15Q25.4-31.15 24.07-31.03 22.75-30.9 21.9-30.43 21.05-29.95 20.67-28.88 20.3-27.8 20.3-25.9L20.3-25.9Q20.3-23.05 21.32-21.93 22.35-20.8 24.65-20.25L24.65-20.25 31.65-18.5Q35.65-17.55 37.12-15.18 38.6-12.8 38.6-8.8L38.6-8.8Q38.6-5.8 37.92-3.95 37.25-2.1 35.85-1.13 34.45-0.15 32.25 0.23 30.05 0.6 27.05 0.6L27.05 0.6Q25.35 0.6 22.62 0.45 19.9 0.3 16.35-0.35L16.35-0.35 16.65-3.6Q19.6-3.5 21.4-3.43 23.2-3.35 24.5-3.35 25.8-3.35 27.2-3.35L27.2-3.35Q29.85-3.35 31.37-3.75 32.9-4.15 33.52-5.35 34.15-6.55 34.15-8.9L34.15-8.9Q34.15-10.9 33.7-12 33.25-13.1 32.27-13.68 31.3-14.25 29.8-14.6L29.8-14.6 22.65-16.4Q18.9-17.35 17.37-19.7 15.85-22.05 15.85-26L15.85-26Q15.85-29 16.52-30.83 17.2-32.65 18.57-33.58 19.95-34.5 22.05-34.8 24.15-35.1 27.05-35.1ZM57.4-34.95L57.4-34.95Q61.4-34.95 63.85-34.08 66.3-33.2 67.42-31.05 68.55-28.9 68.55-25L68.55-25Q68.55-22.2 67.9-20.33 67.25-18.45 65.87-17.43 64.5-16.4 62.2-16.1L62.2-16.1 62.2-15.85Q63.05-15.65 63.87-15.03 64.7-14.4 65.4-13.38 66.09-12.35 66.45-10.9L66.45-10.9 69.8 0 65.09 0 62.05-10.8Q61.4-12.75 60.3-13.58 59.2-14.4 57.45-14.4L57.45-14.4Q54.4-14.4 52.15-14.43 49.9-14.45 48.4-14.5 46.9-14.55 46-14.55L46-14.55 46.15-18.2 57.3-18.2Q59.84-18.25 61.32-18.8 62.8-19.35 63.45-20.78 64.09-22.2 64.09-24.75L64.09-24.75Q64.09-27.3 63.45-28.68 62.8-30.05 61.32-30.6 59.84-31.15 57.3-31.15L57.3-31.15Q53.2-31.15 50.22-31.1 47.25-31.05 46.2-31.05L46.2-31.05 45.5-34.5Q47.4-34.7 49.05-34.8 50.7-34.9 52.67-34.93 54.65-34.95 57.4-34.95ZM45.5-34.5L49.85-34.5 49.85 0 45.5 0 45.5-34.5ZM85.29-34.5L89.89-34.5Q90.49-34.5 90.94-34.18 91.39-33.85 91.54-33.3L91.54-33.3 102.64 0 98.09 0 89.14-28.3Q88.94-29 88.72-29.73 88.49-30.45 88.29-31.1L88.29-31.1 86.89-31.1Q86.69-30.45 86.49-29.73 86.29-29 86.04-28.3L86.04-28.3 77.09 0 72.54 0 83.64-33.3Q83.79-33.85 84.24-34.18 84.69-34.5 85.29-34.5L85.29-34.5ZM78.79-14.6L96.29-14.6 96.29-10.8 78.79-10.8 78.79-14.6ZM113.84-34.55L113.84-34.55Q116.34-34.55 118.87-34.55 121.39-34.55 123.87-34.48 126.34-34.4 128.64-34.25L128.64-34.25 128.44-30.8 114.59-30.8Q113.04-30.8 112.32-30.03 111.59-29.25 111.59-27.5L111.59-27.5 111.59-7Q111.59-5.25 112.32-4.45 113.04-3.65 114.59-3.65L114.59-3.65 128.44-3.65 128.64-0.25Q126.34-0.1 123.87-0.05 121.39 0 118.87 0.03 116.34 0.05 113.84 0.05L113.84 0.05Q110.79 0.05 109.02-1.58 107.24-3.2 107.19-5.95L107.19-5.95 107.19-28.55Q107.24-31.35 109.02-32.95 110.79-34.55 113.84-34.55ZM108.09-16.45L108.09-20 126.49-20 126.49-16.45 108.09-16.45ZM135.39-34.5L139.74-34.5 139.74-7Q139.74-5.3 140.56-4.5 141.39-3.7 143.09-3.7L143.09-3.7 155.54-3.7 155.74-0.3Q152.49-0.05 149.11 0 145.74 0.05 142.39 0.05L142.39 0.05Q138.59 0.05 136.99-1.8 135.39-3.65 135.39-6.45L135.39-6.45 135.39-34.5Z" fill="#ffffff" data-fill-palette-color="primary"></path></g></svg></g><g><svg xmlns="http://www.w3.org/2000/svg" xmlns:xlink="http://www.w3.org/1999/xlink" version="1.1" x="258.6026" y="0" viewBox="11.017823219299316 11.461749076843262 37.96369934082031 37.0682487487793" style="enable-background:new 0 0 60 60;" xml:space="preserve" height="57.7626" width="59.15796007536724" class="icon-b-0" data-fill-palette-color="accent" id="b-0"><path d="M48.85 34.1L35.82 11.92A0.945 0.945 0 0 0 34.2 11.92L30 19.08 25.79 11.93A0.945 0.945 0 0 0 24.17 11.93L11.15 34.1C10.93 34.47 10.99 34.93 11.29 35.23L24.32 48.26C24.5 48.44 24.74 48.53 24.98 48.53S25.46 48.44 25.64 48.26L30 43.91 34.35 48.26C34.53 48.44 34.77 48.53 35.01 48.53S35.49 48.44 35.67 48.26L48.7 35.23C49.01 34.93 49.07 34.46 48.85 34.1M24.99 46.28L13.13 34.42 24.99 14.24 28.92 20.92 21.17 34.1C20.95 34.47 21.01 34.93 21.31 35.23L28.67 42.59zM30 22.77L36.85 34.42 30 41.27 23.15 34.42zM35.01 46.28L31.32 42.59 38.68 35.23C38.98 34.93 39.04 34.46 38.82 34.1L31.08 20.93 35.01 14.25 46.87 34.43z" fill="#ffffff" data-fill-palette-color="accent"></path></svg></g></svg></g></svg></g></svg></g></svg></g><g></g></svg></g><defs></defs></svg><rect width="317.7605600753672" height="57.7626" fill="none" stroke="none" visibility="hidden"></rect></g></svg></g></g></g></g><rect width="329.75252937336813" height="69.76262646866837" x="156.12781494778062" y="166.1186867656658" rx="2.5" ry="2.5" fill="transparent" class="logo-element-hover-target"></rect></svg>